<?xml version="1.0" encoding="UTF-8"?>
<svg id="Capa_1" data-name="Capa 1" xmlns="http://www.w3.org/2000/svg" viewBox="0 0 309.25 477.12">
  <defs>
    <style>
      .cls-1 {
        fill: #000;
      }
    </style>
  </defs>
  <path class="cls-1" d="M309.07,0H0s0,477.12,0,477.12h309.12s0-475.1,0-475.1c0-.83.32-1.35-.05-2.02ZM281.42,449.96l-253.61.03V27.92c-.16-.35.04-.55.35-.44l253.44-.08v421.58c.1.65-.03.77-.18.97Z"/>
  <path class="cls-1" d="M79.68,290.22c-12.36-3.54-33.66-13.38-27.14-28.25,1.03-2.34,2.4-4.3,4.06-6.27,10.41-12.34,20.18-28.42,11.73-44.11l-3.88-6.17c5.41,2.81,9.88,6.74,13.34,11.56,6.57,9.17,6.88,19.77,3.18,30.25-2.09,5.93-3.63,11.82-4.43,18.07-.98,8.4-.69,17.32,3.14,24.9Z"/>
  <path class="cls-1" d="M251.77,280.93c4.15,12.26-2.84,29.65-9.36,40.9-2.5-13.66-7.23-26.69-14.92-38.18-3.15-4.71-4.92-9.68-4.52-15.5.75-10.88,7.03-21.63,14.19-29.88-.78,4.26-1.62,8.04-1.53,12.17-.21,5.61,1.67,10.75,5.4,14.86l4.18,4.7c2.87,3.23,5.16,6.8,6.56,10.93Z"/>
  <path class="cls-1" d="M186.23,101.5c-2.55,8.16-7.9,14.61-15.38,18.58-5.01,2.65-10.4,4.33-16.37,4.75,12.52-14.46,16.08-31.67,3.94-47.24-7.38-9.47-8.32-21.17-.86-30.98-.94,3.83-.83,7.27.85,10.63,1.43,3.05,3.56,5.55,5.86,8.02l7.38,7.01c8.36,7.94,18.62,16.29,14.58,29.23Z"/>
  <path class="cls-1" d="M162.13,166.13c-14.65-7.31-24.64-21.89-24.64-38.68,0-7.74,2.12-15.01,5.85-21.32l-.17.15c-12.96,10.29-21.2,25.74-21.2,43.03,0,2.72.2,5.39.6,8l.09.57c.13,1.52.2,3.05.2,4.61,0,14.19-5.56,27.16-14.72,37.03v.1c-6.09,6.92-9.77,15.83-9.77,25.55,0,10.65,4.41,20.33,11.59,27.48l.04.05c7.02,6.83,11.35,16.16,11.35,26.45,0,15.87-10.29,29.46-24.89,35.09-.59.23-1.18.44-1.79.64l-.09.16c-14.78,6.03-25.19,20.55-25.19,37.49s11.01,32.29,26.46,37.99l.21.04c13.9,5.54,24.38,17.85,27.35,32.86,0,0,11.89-16.88,11.89-27.68,0-11.47-5.13-21.74-13.23-28.64l.79.72c-.3-.26-.6-.54-.88-.82-3.7-3.65-6-8.73-6-14.34,0-9.23,6.21-17.01,14.69-19.39l.03.07c-1.89,3.51-2.97,7.54-2.97,11.81,0,9.19,4.97,17.22,12.37,21.54l-.05-.02c7.78,4.31,13.04,12.59,13.04,22.11,0,7.44-3.22,14.13-8.33,18.75l.1-.09c13.37-.65,24.02-11.7,24.02-25.23,0-4.38-1.11-8.5-3.08-12.09l.1.08c-7.8-10.6-12.41-23.69-12.41-37.86,0-11.15,2.85-21.63,7.87-30.75,0,0-.2,3.51-.2,5.56,0,22.69,10.11,43.01,26.07,56.72l.1.1c8.83,7.09,14.48,17.98,14.48,30.18,0,16.39-10.19,30.4-24.59,36.04l-.14.04c39.02-.5,70.49-32.29,70.49-71.43,0-24.21-12.04-45.61-30.47-58.53h.06c-2.99-2.12-5.78-4.51-8.32-7.14-10.14-10.5-16.39-24.8-16.39-40.55,0-18.24,8.37-34.53,21.47-45.23.18-.15.54-.43.54-.43,0,0-5.98-1.4-9.28-1.4-10.59,0-19.96,5.01-25.6,12.66-3.54,4.8-5.62,10.65-5.62,16.96,0,1.78.17,3.53.49,5.23l-.02.15c0,2.91-2.49,5.27-5.56,5.27-2.03,0-3.8-1.03-4.77-2.57l.21.37c-.21-.31-.41-.62-.61-.94-5.07-8.04-7.98-17.44-7.98-27.48,0-11.42,3.76-22,10.17-30.69l.06-.03c1.61-2.1,2.56-4.69,2.56-7.49,0-5.21-3.3-9.7-8.02-11.67"/>
</svg>
